<svg data-v-423bf9ae="" xmlns="http://www.w3.org/2000/svg" viewBox="0 0 339.2184050238251 60" class="font"><!----><!----><!----><g data-v-423bf9ae="" id="c9268848-a531-437b-8500-2010fd41c811" fill="black" transform="matrix(4.5977014182197555,0,0,4.5977014182197555,-3.402297362272691,-16.551725143957306)"><path d="M4.72 13.94C5.91 13.94 6.87 13.47 7.46 12.88L7.46 8.99L4.55 8.99L4.55 9.95L6.38 9.95L6.38 12.38C6.03 12.71 5.43 12.92 4.79 12.92C2.98 12.92 1.96 11.45 1.96 9.13C1.96 6.83 3.09 5.39 4.82 5.39C5.70 5.39 6.24 5.75 6.69 6.23L7.35 5.49C6.83 4.94 6.03 4.37 4.82 4.37C2.44 4.37 0.74 6.17 0.74 9.16C0.74 12.17 2.41 13.94 4.72 13.94ZM12.60 13.96C14.39 13.96 15.96 12.59 15.96 10.22C15.96 7.83 14.39 6.47 12.60 6.47C10.81 6.47 9.24 7.83 9.24 10.22C9.24 12.59 10.81 13.96 12.60 13.96ZM12.60 13.01C11.30 13.01 10.43 11.89 10.43 10.22C10.43 8.55 11.30 7.42 12.60 7.42C13.90 7.42 14.77 8.55 14.77 10.22C14.77 11.89 13.90 13.01 12.60 13.01ZM18.10 16.65L19.25 16.65L19.25 14.38L19.22 13.02C19.84 13.61 20.64 13.96 21.27 13.96C22.90 13.96 24.36 12.53 24.36 10.11C24.36 7.88 23.38 6.47 21.55 6.47C20.71 6.47 19.82 6.93 19.19 7.56L19.15 7.56L19.05 6.64L18.10 6.64ZM21.07 12.99C20.61 12.99 19.89 12.74 19.25 12.12L19.25 8.53C19.95 7.78 20.65 7.43 21.25 7.43C22.61 7.43 23.17 8.51 23.17 10.11C23.17 11.89 22.29 12.99 21.07 12.99ZM26.50 13.78L27.65 13.78L27.65 8.79C28.45 7.90 28.99 7.46 29.81 7.46C30.93 7.46 31.37 8.12 31.37 9.49L31.37 13.78L32.52 13.78L32.52 9.34C32.52 7.46 31.78 6.47 30.17 6.47C29.11 6.47 28.32 7.07 27.59 7.88L27.65 6.17L27.65 3.60L26.50 3.60ZM38.22 13.96C39.31 13.96 40.17 13.57 40.84 13.12L40.43 12.35C39.80 12.77 39.16 13.02 38.36 13.02C36.88 13.02 35.81 12.03 35.76 10.49L41.08 10.49C41.10 10.30 41.12 10.05 41.12 9.81C41.12 7.80 39.97 6.47 38.02 6.47C36.26 6.47 34.57 7.90 34.57 10.22C34.57 12.56 36.20 13.96 38.22 13.96ZM35.74 9.65C35.92 8.22 36.93 7.38 38.04 7.38C39.30 7.38 40.05 8.19 40.05 9.65ZM44.04 13.78L45.19 13.78L45.19 9.56C46.00 8.06 46.97 7.50 47.99 7.50C48.52 7.50 48.78 7.57 49.25 7.76L49.52 6.76C49.10 6.54 48.68 6.47 48.17 6.47C46.91 6.47 45.85 7.20 45.14 8.34L45.09 8.34L45.00 6.64L44.04 6.64ZM55.36 13.94C56.53 13.94 57.43 13.45 58.16 12.61L57.48 11.90C56.90 12.56 56.27 12.92 55.43 12.92C53.66 12.92 52.53 11.45 52.53 9.13C52.53 6.83 53.66 5.39 55.43 5.39C56.20 5.39 56.80 5.73 57.27 6.23L57.93 5.49C57.40 4.90 56.53 4.37 55.43 4.37C53.03 4.37 51.32 6.19 51.32 9.16C51.32 12.17 53.05 13.94 55.36 13.94ZM63 13.96C64.79 13.96 66.36 12.59 66.36 10.22C66.36 7.83 64.79 6.47 63 6.47C61.21 6.47 59.64 7.83 59.64 10.22C59.64 12.59 61.21 13.96 63 13.96ZM63 13.01C61.70 13.01 60.83 11.89 60.83 10.22C60.83 8.55 61.70 7.42 63 7.42C64.30 7.42 65.17 8.55 65.17 10.22C65.17 11.89 64.30 13.01 63 13.01ZM68.50 13.78L69.65 13.78L69.65 8.79C70.45 7.90 70.99 7.46 71.81 7.46C72.93 7.46 73.37 8.12 73.37 9.49L73.37 13.78L74.52 13.78L74.52 9.34C74.52 7.46 73.78 6.47 72.17 6.47C71.11 6.47 70.32 7.07 69.61 7.88L69.55 7.88L69.45 6.64L68.50 6.64Z"></path></g><!----><!----></svg>